<mxfile host="app.diagrams.net" modified="2024-02-28T14:48:38.300Z" agent="Mozilla/5.0 (Windows NT 10.0; Win64; x64; rv:123.0) Gecko/20100101 Firefox/123.0" etag="PLlTJPpOupaIySOD79do" version="23.1.5" type="github">
  <diagram name="Page-1" id="Bd46Y2cT3oI2A0dnQeYa">
    <mxGraphModel dx="1434" dy="698" grid="1" gridSize="10" guides="1" tooltips="1" connect="1" arrows="1" fold="1" page="1" pageScale="1" pageWidth="850" pageHeight="1100" math="0" shadow="0">
      <root>
        <mxCell id="0" />
        <mxCell id="1" parent="0" />
        <mxCell id="2sod7WrRAVGhUZUTjBWh-1" value="Misc Math" style="swimlane;whiteSpace=wrap;html=1;" parent="1" vertex="1">
          <mxGeometry x="70" y="70" width="680" height="190" as="geometry" />
        </mxCell>
        <mxCell id="2sod7WrRAVGhUZUTjBWh-4" value="&lt;div align=&quot;justify&quot;&gt;&lt;b&gt;Linear Algebra&lt;br&gt;&lt;br&gt;&lt;font color=&quot;#2eff2e&quot;&gt;1. MIT - gilbert Strang&lt;br&gt;2. LA and Opt for ML Charu C agg.&lt;/font&gt;&lt;br&gt;&lt;/b&gt;&lt;/div&gt;" style="rounded=0;whiteSpace=wrap;html=1;align=left;" parent="2sod7WrRAVGhUZUTjBWh-1" vertex="1">
          <mxGeometry x="10" y="50" width="180" height="90" as="geometry" />
        </mxCell>
        <mxCell id="2sod7WrRAVGhUZUTjBWh-2" value="&lt;div&gt;&lt;b&gt;non convex optimization&lt;/b&gt;&lt;/div&gt;&lt;div&gt;&lt;b&gt;&lt;br&gt;&lt;/b&gt;&lt;/div&gt;" style="rounded=0;whiteSpace=wrap;html=1;" parent="2sod7WrRAVGhUZUTjBWh-1" vertex="1">
          <mxGeometry x="220" y="65" width="120" height="60" as="geometry" />
        </mxCell>
        <mxCell id="2sod7WrRAVGhUZUTjBWh-3" value="&lt;b&gt;Calculus?&lt;/b&gt;" style="rounded=0;whiteSpace=wrap;html=1;" parent="2sod7WrRAVGhUZUTjBWh-1" vertex="1">
          <mxGeometry x="370" y="65" width="120" height="60" as="geometry" />
        </mxCell>
        <mxCell id="2sod7WrRAVGhUZUTjBWh-28" value="&lt;b&gt;Taylor Series&lt;br&gt;&lt;/b&gt;" style="rounded=0;whiteSpace=wrap;html=1;" parent="2sod7WrRAVGhUZUTjBWh-1" vertex="1">
          <mxGeometry x="520" y="65" width="120" height="60" as="geometry" />
        </mxCell>
        <mxCell id="2sod7WrRAVGhUZUTjBWh-12" value="Robotics Theory" style="swimlane;whiteSpace=wrap;html=1;" parent="1" vertex="1">
          <mxGeometry x="255" y="310" width="340" height="150" as="geometry" />
        </mxCell>
        <mxCell id="2sod7WrRAVGhUZUTjBWh-16" style="edgeStyle=orthogonalEdgeStyle;rounded=0;orthogonalLoop=1;jettySize=auto;html=1;" parent="2sod7WrRAVGhUZUTjBWh-12" source="2sod7WrRAVGhUZUTjBWh-13" target="2sod7WrRAVGhUZUTjBWh-14" edge="1">
          <mxGeometry relative="1" as="geometry" />
        </mxCell>
        <mxCell id="2sod7WrRAVGhUZUTjBWh-13" value="Probablistic Robotics" style="rounded=0;whiteSpace=wrap;html=1;align=left;" parent="2sod7WrRAVGhUZUTjBWh-12" vertex="1">
          <mxGeometry x="20" y="80" width="120" height="40" as="geometry" />
        </mxCell>
        <mxCell id="2sod7WrRAVGhUZUTjBWh-14" value="Factor Graphs for robot perception" style="rounded=0;whiteSpace=wrap;html=1;fillColor=#d5e8d4;strokeColor=#82b366;" parent="2sod7WrRAVGhUZUTjBWh-12" vertex="1">
          <mxGeometry x="200" y="70" width="120" height="60" as="geometry" />
        </mxCell>
        <mxCell id="2sod7WrRAVGhUZUTjBWh-24" value="Robotics Code" style="swimlane;whiteSpace=wrap;html=1;" parent="1" vertex="1">
          <mxGeometry x="255" y="520" width="340" height="150" as="geometry" />
        </mxCell>
        <mxCell id="2sod7WrRAVGhUZUTjBWh-26" value="Real time visual slam" style="rounded=0;whiteSpace=wrap;html=1;align=left;fillColor=#d5e8d4;strokeColor=#82b366;" parent="2sod7WrRAVGhUZUTjBWh-24" vertex="1">
          <mxGeometry x="20" y="80" width="120" height="40" as="geometry" />
        </mxCell>
        <mxCell id="2sod7WrRAVGhUZUTjBWh-27" value="&lt;b&gt;Get stack, and general project framework&lt;br&gt;&lt;/b&gt;" style="rounded=0;whiteSpace=wrap;html=1;fillColor=#fa6800;fontColor=#000000;strokeColor=#C73500;" parent="2sod7WrRAVGhUZUTjBWh-24" vertex="1">
          <mxGeometry x="200" y="70" width="120" height="60" as="geometry" />
        </mxCell>
      </root>
    </mxGraphModel>
  </diagram>
</mxfile>
